<svg xmlns="http://www.w3.org/2000/svg" xmlns:xlink="http://www.w3.org/1999/xlink" version="1.1" id="Layer_1" x="0px" y="0px" viewBox="0 0 64 64" style="enable-background:new 0 0 64 64;" xml:space="preserve">
<path style="fill:#5DBC9D;" d="M13.225,16.593c0,0,1.07-13.724,14.894-11.692c9.811,1.442,20.966,12.421,24.245,15.853  c0.505,0.529,0.396,1.384-0.229,1.765c-3.931,2.401-16.875,9.752-26.709,8.9C11.946,30.252,13.225,16.593,13.225,16.593z"></path>
<path style="fill:#FFEB9B;" d="M61,35H3c-1.105,0-2-0.895-2-2v0c0-1.105,0.895-2,2-2h58c1.105,0,2,0.895,2,2v0  C63,34.105,62.105,35,61,35z"></path>
<path style="fill:#F9DD8F;" d="M61,35l-0.78,3.92c-1.33,6.63-5.85,11.93-11.76,14.46c-0.48,0.21-0.87,0.58-1.08,1.06L47.14,55  l-1.19,2.79C45.63,58.52,44.91,59,44.11,59H20.89c-0.8,0-1.52-0.48-1.84-1.21L17.86,55l-0.04-0.1c-0.23-0.52-0.67-0.91-1.2-1.1  c-6.44-2.32-11.43-7.85-12.84-14.88L3,35H61z"></path>
<path style="fill:#F6D397;" d="M47.14,55l-1.19,2.79C45.63,58.52,44.91,59,44.11,59H20.89c-0.8,0-1.52-0.48-1.84-1.21L17.86,55  H47.14z"></path>
<rect x="4" y="35" style="fill:#F6D397;" width="56" height="4"></rect>
<path style="fill:#72CAAF;" d="M14,16c13.752,5.157,30,6,38,4c0.467-0.117-0.534-0.523-0.882-0.855C47.633,15.83,34.599,4,26,4  C16,4,14,16,14,16z"></path>
<g>
	<path style="fill:#8D6C9F;" d="M36.687,22.05c0.766,0.035,1.414,0.045,1.934,0.045c0.505,0,0.888-0.01,1.138-0.016l0.213-0.005   c0.553-0.009,0.993-0.464,0.984-1.016c-0.01-0.552-0.512-0.996-1.016-0.984l-0.233,0.005c-0.52,0.014-1.488,0.04-2.928-0.028   c-0.557-0.022-1.02,0.401-1.045,0.953S36.136,22.025,36.687,22.05z"></path>
	<path style="fill:#8D6C9F;" d="M64,33c0-1.65-1.35-3-3-3H39.06c6.07-2.21,11.4-5.28,13.6-6.63c0.55-0.34,0.92-0.9,1.01-1.55   c0.08-0.64-0.13-1.28-0.58-1.76C49.83,16.65,38.4,5.4,28.26,3.91c-4.4-0.65-8.04,0.16-10.84,2.39   c-2.914,2.325-4.204,5.652-4.768,7.874c-2.115-0.857-4.333-1.831-6.656-2.955C5.497,10.977,4.9,11.187,4.66,11.683   c-0.24,0.497-0.032,1.095,0.465,1.335c2.498,1.209,4.877,2.248,7.141,3.155c-0.021,0.174-0.033,0.296-0.036,0.336   c-0.03,0.36-0.54,6.62,3.32,11.25c0.73,0.87,1.55,1.61,2.48,2.24H3c-1.65,0-3,1.35-3,3c0,1.354,0.915,2.493,2.153,2.862   l0.651,3.256c1.431,7.156,6.596,13.142,13.478,15.623c0.287,0.104,0.506,0.301,0.615,0.555l1.236,2.886   C18.606,59.286,19.688,60,20.891,60h23.219c1.202,0,2.284-0.714,2.758-1.818l1.436-3.35c0.1-0.232,0.296-0.42,0.553-0.53   c6.37-2.726,10.984-8.401,12.341-15.183l0.651-3.256C63.085,35.493,64,34.354,64,33z M17.1,26.49   c-2.973-3.558-2.94-8.447-2.893-9.561c7.218,2.725,13.077,4.005,17.128,4.595c0.049,0.007,0.098,0.01,0.146,0.01   c0.488,0,0.916-0.358,0.988-0.856c0.08-0.546-0.299-1.054-0.845-1.134c-4.018-0.585-9.863-1.868-17.09-4.629   c0.459-1.919,1.558-4.993,4.135-7.056c1.81-1.44,4.08-2.16,6.78-2.16c0.8,0,1.64,0.06,2.52,0.19c9.51,1.4,20.52,12.26,23.67,15.56   c0.03,0.03,0.05,0.07,0.04,0.11c0,0.05-0.03,0.08-0.07,0.11c-2.93,1.79-11.6,6.76-19.83,8.33h-8.86   C20.49,29.38,18.54,28.21,17.1,26.49z M59.235,38.726c-0.281,1.404-0.723,2.751-1.296,4.03c-0.129-0.403-0.493-0.699-0.939-0.699   c-0.553,0-1,0.448-1,1v2c0,0.262,0.106,0.495,0.27,0.674c-2.012,2.932-4.832,5.29-8.202,6.732   c-0.731,0.313-1.301,0.874-1.604,1.581l-1.436,3.35C44.871,57.762,44.51,58,44.109,58H20.891c-0.4,0-0.762-0.238-0.92-0.606   L19.374,56H35c0.553,0,1-0.448,1-1s-0.447-1-1-1H18.449c-0.358-0.516-0.877-0.92-1.49-1.141c-3.787-1.365-6.993-3.907-9.22-7.143   C7.897,45.54,8,45.313,8,45.057v-2c0-0.552-0.447-1-1-1c-0.44,0-0.802,0.289-0.936,0.684c-0.575-1.276-1.02-2.618-1.299-4.014   L4.22,36H59.78L59.235,38.726z M61,34H3c-0.55,0-1-0.45-1-1s0.45-1,1-1h58c0.55,0,1,0.45,1,1S61.55,34,61,34z"></path>
	<path style="fill:#8D6C9F;" d="M42,46.057c0.553,0,1-0.448,1-1v-2c0-0.552-0.447-1-1-1s-1,0.448-1,1v2   C41,45.609,41.447,46.057,42,46.057z"></path>
	<path style="fill:#8D6C9F;" d="M47,46.057c0.553,0,1-0.448,1-1v-2c0-0.552-0.447-1-1-1s-1,0.448-1,1v2   C46,45.609,46.447,46.057,47,46.057z"></path>
	<path style="fill:#8D6C9F;" d="M52,46.057c0.553,0,1-0.448,1-1v-2c0-0.552-0.447-1-1-1s-1,0.448-1,1v2   C51,45.609,51.447,46.057,52,46.057z"></path>
	<path style="fill:#8D6C9F;" d="M22,46.057c0.553,0,1-0.448,1-1v-2c0-0.552-0.447-1-1-1s-1,0.448-1,1v2   C21,45.609,21.447,46.057,22,46.057z"></path>
	<path style="fill:#8D6C9F;" d="M27,46.057c0.553,0,1-0.448,1-1v-2c0-0.552-0.447-1-1-1s-1,0.448-1,1v2   C26,45.609,26.447,46.057,27,46.057z"></path>
	<path style="fill:#8D6C9F;" d="M32,46.057c0.553,0,1-0.448,1-1v-2c0-0.552-0.447-1-1-1s-1,0.448-1,1v2   C31,45.609,31.447,46.057,32,46.057z"></path>
	<path style="fill:#8D6C9F;" d="M37,46.057c0.553,0,1-0.448,1-1v-2c0-0.552-0.447-1-1-1s-1,0.448-1,1v2   C36,45.609,36.447,46.057,37,46.057z"></path>
	<path style="fill:#8D6C9F;" d="M12,46.057c0.553,0,1-0.448,1-1v-2c0-0.552-0.447-1-1-1s-1,0.448-1,1v2   C11,45.609,11.447,46.057,12,46.057z"></path>
	<path style="fill:#8D6C9F;" d="M17,46.057c0.553,0,1-0.448,1-1v-2c0-0.552-0.447-1-1-1s-1,0.448-1,1v2   C16,45.609,16.447,46.057,17,46.057z"></path>
	<path style="fill:#8D6C9F;" d="M39,56h4c0.553,0,1-0.448,1-1s-0.447-1-1-1h-4c-0.553,0-1,0.448-1,1S38.447,56,39,56z"></path>
</g>
</svg>