<svg xmlns="http://www.w3.org/2000/svg" xmlns:xlink="http://www.w3.org/1999/xlink" version="1.1" id="Layer_1" x="0px" y="0px" viewBox="0 0 80 80" style="enable-background:new 0 0 80 80;" xml:space="preserve">
<g>
	<path style="fill:#BAE0BD;" d="M17.3,77.5c-2.5,0-4.8-0.3-7.2-0.6c-2.4-0.3-4.9-0.7-7.6-0.7c0.2-12.8,6.6-17.4,16.3-24.3   c5.4-3.8,11.5-8.1,18-14.9c4.2-4.3,6.9-9.2,9.5-14C52.2,12.5,57.7,2.6,77.5,2.5c0.1,0.8-0.3,1.8-0.8,3.1c-1,2.4-2.4,5.6-1.9,10.8   c0.8,7.9,0.1,23.6-14.1,40.3C48.8,70.7,34.6,77.5,17.3,77.5z"></path>
	<path style="fill:#5E9C76;" d="M77,3c0,0.6-0.4,1.3-0.8,2.4c-1,2.3-2.5,5.7-1.9,11.1c0.8,7.8,0.1,23.4-14,39.9   C48.3,70.4,34.7,77,17.3,77c-2.5,0-4.7-0.3-7.2-0.6C7.9,76,5.6,75.7,3,75.6c0.3-12.2,6.6-16.7,16.1-23.4   c5.4-3.8,11.5-8.2,18.1-14.9c4.2-4.3,7-9.3,9.6-14.1C52.8,12.5,57.9,3.3,77,3 M77.9,2c-29.5,0-28,20.9-41.3,34.6   C17.7,55.9,2,56,2,76.6c5.7,0,10.2,1.4,15.3,1.4c15,0,30-4.8,43.7-20.9c11.9-14,15.5-28.9,14.2-40.7C74.4,7.8,78.9,4.7,77.9,2   L77.9,2z"></path>
</g>
<g>
	<path style="fill:#93CC97;" d="M61.9,37.9c-1.4,0-2.7-0.5-3.7-1.5c-1.2-1.1-1.8-2.3-1.8-3.5s0.6-2.3,1.8-3.5   c1.2-1.1,2.5-1.7,3.7-1.7s2.6,0.6,3.8,1.7c1,0.9,1.5,2.2,1.5,3.5c0,1.3-0.5,2.5-1.5,3.5C64.7,37.4,63.4,37.9,61.9,37.9z"></path>
	<g>
		<path style="fill:#5E9C76;" d="M61.9,28.4L61.9,28.4c1.4,0,2.6,0.9,3.4,1.6c0.9,0.8,1.4,1.9,1.4,3.1c0,1.2-0.5,2.3-1.4,3.1    c-0.9,0.8-2.1,1.3-3.4,1.3c-1.3,0-2.5-0.5-3.4-1.3c-0.8-0.7-1.7-1.8-1.7-3.1c0-1,0.6-2.1,1.7-3.1C59.7,28.9,60.8,28.4,61.9,28.4     M61.9,27.4c-1.3,0-2.7,0.5-4.1,1.8c-3,2.8-2.3,5.5,0,7.7c1.1,1.1,2.6,1.6,4.1,1.6s3-0.5,4.1-1.6c2.3-2.1,2.3-5.5,0-7.7    C64.8,28.1,63.4,27.4,61.9,27.4L61.9,27.4z"></path>
	</g>
</g>
<g>
	<path style="fill:#93CC97;" d="M53.4,52.2c-3.1,0-5.4-2.1-5.4-5c0-3.2,0.9-5,5.4-5c4.5,0,5.4,1.8,5.4,5   C58.8,50.1,56.5,52.2,53.4,52.2z"></path>
	<g>
		<path style="fill:#5E9C76;" d="M53.4,42.6c2.1,0,3.4,0.4,4.1,1.3c0.6,0.7,0.8,1.7,0.8,3.3c0,2.7-2,4.5-4.9,4.5s-4.9-1.9-4.9-4.5    C48.4,44.6,48.8,42.6,53.4,42.6 M53.4,41.6c-5.1,0-5.9,2.5-5.9,5.5s2.3,5.5,5.9,5.5c3.6,0,5.9-2.5,5.9-5.5    C59.3,44.1,58.5,41.6,53.4,41.6L53.4,41.6z"></path>
	</g>
</g>
<g>
	<path style="fill:#93CC97;" d="M41,63.2c-1.3,0-2.5-1-3.6-2c-1-0.9-1.5-2.1-1.5-3.4c0-1.3,0.5-2.5,1.5-3.4c1-0.9,2.3-1.4,3.7-1.4   c1.4,0,2.7,0.5,3.7,1.4c1.3,1.2,2.1,2.2,2.1,3.3c0,1-0.7,2.2-2.1,3.5C43.4,62.5,42.1,63.2,41,63.2z"></path>
	<g>
		<path style="fill:#5E9C76;" d="M41.1,53.4L41.1,53.4c1.3,0,2.5,0.5,3.4,1.3c1.2,1.1,2,2,2,3c0,0.9-0.7,1.9-2,3.1    c-1.3,1.3-2.5,1.9-3.5,1.9c-1.1,0-2-0.7-3.3-1.9c-0.9-0.8-1.4-1.9-1.4-3.1s0.5-2.2,1.4-3.1C38.7,53.9,39.8,53.4,41.1,53.4     M41.1,52.4c-1.5,0-2.9,0.5-4,1.6c-2.2,2.1-2.2,5.5,0,7.6c1.3,1.2,2.5,2.1,3.9,2.1c1.2,0,2.5-0.6,4.1-2.1c3.8-3.5,2.2-5.5,0-7.6    C44.1,53,42.6,52.4,41.1,52.4L41.1,52.4z"></path>
	</g>
</g>
<g>
	<path style="fill:#93CC97;" d="M67.1,22.1c-0.9,0-1.8-0.3-2.5-1c-0.9-0.8-1.4-1.5-1.4-2.2c0-0.7,0.5-1.5,1.4-2.4   c1-0.9,1.8-1.4,2.6-1.4c0.8,0,1.5,0.5,2.4,1.4c0.7,0.6,1,1.4,1,2.3c0,0.9-0.4,1.7-1,2.3C68.9,21.8,68,22.1,67.1,22.1z"></path>
	<g>
		<path style="fill:#5E9C76;" d="M67.1,15.7L67.1,15.7c0.7,0,1.3,0.5,2.1,1.2c0.6,0.5,0.9,1.2,0.9,1.9s-0.3,1.4-0.9,1.9    c-0.6,0.5-1.3,0.8-2.2,0.8s-1.6-0.3-2.2-0.8c-0.8-0.7-1.3-1.3-1.3-1.9c0-0.5,0.4-1.2,1.3-2C65.8,16.1,66.5,15.7,67.1,15.7     M67.1,14.7c-0.8,0-1.8,0.4-2.9,1.5c-2.6,2.4-1.6,3.9,0,5.3c0.8,0.7,1.8,1.1,2.8,1.1s2.1-0.4,2.8-1.1c1.6-1.5,1.6-3.9,0-5.3    C69,15.4,68.2,14.7,67.1,14.7L67.1,14.7z"></path>
	</g>
</g>
<g>
	<path style="fill:#93CC97;" d="M29.9,69.6c-0.9,0-1.8-0.3-2.5-1c-0.9-0.8-1.4-1.5-1.4-2.2c0-0.7,0.5-1.5,1.4-2.4   c1-0.9,1.8-1.4,2.6-1.4c0.8,0,1.5,0.5,2.4,1.4c0.7,0.6,1,1.4,1,2.3c0,0.9-0.4,1.7-1,2.3C31.8,69.3,30.9,69.6,29.9,69.6z"></path>
	<g>
		<path style="fill:#5E9C76;" d="M30,63.2L30,63.2c0.7,0,1.3,0.5,2.1,1.2c0.6,0.5,0.9,1.2,0.9,1.9s-0.3,1.4-0.9,1.9    c-0.6,0.5-1.3,0.8-2.2,0.8c-0.8,0-1.6-0.3-2.2-0.8c-0.8-0.7-1.3-1.3-1.3-1.9c0-0.5,0.4-1.2,1.3-2C28.6,63.6,29.4,63.2,30,63.2     M30,62.2c-0.8,0-1.8,0.4-2.9,1.5c-2.6,2.4-1.6,3.9,0,5.3c0.8,0.7,1.8,1.1,2.8,1.1s2.1-0.4,2.8-1.1c1.6-1.5,1.6-3.9,0-5.3    C31.9,62.9,31,62.2,30,62.2L30,62.2z"></path>
	</g>
</g>
<g>
	<path style="fill:#93CC97;" d="M17.6,73.9c-0.9,0-1.8-0.3-2.5-1c-0.9-0.8-1.4-1.5-1.4-2.2c0-0.7,0.5-1.5,1.4-2.4   c1-0.9,1.8-1.4,2.6-1.4c0.8,0,1.5,0.5,2.4,1.4c0.7,0.6,1,1.4,1,2.3s-0.4,1.7-1,2.3C19.4,73.5,18.5,73.9,17.6,73.9z"></path>
	<g>
		<path style="fill:#5E9C76;" d="M17.6,67.4L17.6,67.4c0.7,0,1.3,0.5,2.1,1.2c0.6,0.5,0.9,1.2,0.9,1.9s-0.3,1.4-0.9,1.9    c-0.6,0.5-1.3,0.8-2.2,0.8c-0.8,0-1.6-0.3-2.2-0.8c-0.8-0.7-1.3-1.3-1.3-1.9c0-0.5,0.4-1.2,1.3-2C16.3,67.9,17,67.4,17.6,67.4     M17.6,66.4c-0.8,0-1.8,0.4-2.9,1.5c-2.6,2.4-1.6,3.9,0,5.3c0.8,0.7,1.8,1.1,2.8,1.1s2.1-0.4,2.8-1.1c1.6-1.5,1.6-3.9,0-5.3    C19.5,67.1,18.7,66.4,17.6,66.4L17.6,66.4z"></path>
	</g>
</g>
<path style="fill:#5E9C76;" d="M3,75.5c-0.1,0-0.2,0-0.3-0.1c-0.2-0.2-0.2-0.5,0-0.7c4.4-4.7,9.2-6.8,14.9-9.2  C25.4,62,34.4,58.2,45,45.5c4.6-5.5,8-11.8,11.2-17.8c5.3-9.9,10.3-19.2,20.5-25.2c0.2-0.1,0.5-0.1,0.7,0.2c0.1,0.2,0.1,0.5-0.2,0.7  c-9.9,5.8-14.9,15-20.1,24.8c-3.3,6.1-6.6,12.4-11.4,18C35,59,25.9,62.9,17.9,66.3c-5.5,2.4-10.3,4.4-14.5,9  C3.3,75.4,3.2,75.5,3,75.5z"></path>
</svg>