<svg xmlns="http://www.w3.org/2000/svg" xmlns:xlink="http://www.w3.org/1999/xlink" version="1.1" id="Layer_1" x="0px" y="0px" viewBox="0 0 80 80" style="enable-background:new 0 0 80 80;" xml:space="preserve">
<g>
	<path style="fill:#BAE0BD;" d="M40.5,64.3c-4.9,0-8.8-1.8-11.6-5.3C18.4,45.7,26.3,12,26.4,11.6c0-0.2,0.5-4.4,4.4-4.4   c2.1,0,3.7-1.4,5.3-2.7c1.3-1.1,2.6-2.1,3.8-2.1c1.7,0,3.6,1.3,5.3,2.4c1.6,1.1,3,2,4.2,2c3.7,0,5.6,4.2,6.2,5.5   c0.1,0.3,7.2,33.4-3.4,46.6C49.4,62.5,45.4,64.3,40.5,64.3z"></path>
	<path style="fill:#5E9C76;" d="M40,3c1.5,0,3.4,1.2,5.1,2.3c1.7,1.1,3.1,2.1,4.4,2.1c3.3,0,5.1,3.8,5.7,5.1   c0.4,1.8,6.9,33.5-3.3,46.2c-2.8,3.5-6.6,5.2-11.4,5.2c-4.7,0-8.5-1.7-11.2-5.1c-4.2-5.4-6-15.2-5.1-28.3   c0.7-10.1,2.7-18.6,2.7-18.7l0-0.1l0-0.1c0-0.2,0.4-3.8,3.9-3.8c2.2,0,4.1-1.5,5.7-2.8C37.8,4,38.9,3,40,3 M40,2   c-3,0-5.6,4.8-9.2,4.8c-4.4,0-4.9,4.8-4.9,4.8S13.2,64.8,40.5,64.8s15.7-52.7,15.7-52.7c-0.8-1.9-2.8-5.8-6.6-5.8   C47.2,6.4,43.3,2,40,2L40,2z"></path>
</g>
<g>
	<path style="fill:#BAE0BD;" d="M35.1,77.4c-0.2-9.5-4.9-12.2-8.7-14.3c-0.7-0.4-1.4-0.8-1.9-1.1c-3.1-2-4.3-5-5.3-7.7   c-0.9-2.3-1.8-4.4-3.7-5.6c-8.1-4.7-7.1-8.5-6.2-11.9c0.5-1.9,0.9-3.7-0.3-5.3c-2.2-3-3.4-5.3-3.4-8.8c0-5.6,4.8-6.5,8.4-7.2   c1.8-0.3,3-0.6,3.6-1.3c0.4-0.5,0.8-1.1,1.2-1.7c2.2-3.2,4.9-7.2,9.5-7.2c2.2,0,6,3,6,14.1c0,1-0.4,3-0.9,5.4   c-0.8,4-1.8,9.5-1.8,14.1c0,5.2,2.4,8.1,5.1,11.4c3.9,4.8,8.8,10.7,8.9,26.9L35.1,77.4L35.1,77.4z"></path>
	<path style="fill:#5E9C76;" d="M28.1,5.9c2,0,5.5,2.9,5.5,13.6c0,0.9-0.4,3-0.8,5.3c-0.8,4.1-1.8,9.6-1.8,14.2   c0,5.4,2.4,8.3,5.2,11.7c3.9,4.7,8.6,10.4,8.8,26.1h-9.3c-0.3-9.4-5.3-12.2-9-14.2c-0.7-0.4-1.3-0.7-1.9-1.1   c-2.9-1.9-4.1-4.7-5.1-7.4c-0.9-2.4-1.8-4.6-3.9-5.8c-7.8-4.6-6.9-8-6-11.3c0.5-1.9,1-3.9-0.3-5.7C7.2,28.2,6,26,6,22.7   c0-4.8,3.6-5.9,8-6.7c1.9-0.3,3.2-0.6,3.9-1.5c0.4-0.5,0.8-1.1,1.2-1.7C21.3,9.6,23.8,5.9,28.1,5.9 M28.1,4.9   c-5.7,0-8.6,5.7-11.1,9.1C15.6,15.8,5,14,5,22.7c0,3.7,1.4,6.2,3.5,9.1c3.1,4.2-6.2,9.8,6.7,17.3c3.9,2.3,3.1,9.4,9,13.2   c3.9,2.5,10.4,4.1,10.4,15.5H46c0-28-14-26.2-14-38.8c0-7.3,2.7-16.8,2.7-19.5C34.6,7.9,30.6,4.9,28.1,4.9L28.1,4.9z"></path>
</g>
<path style="fill:#5E9C76;" d="M30.7,55.6c-0.1,0-0.3-0.1-0.4-0.2c-0.2-0.2-0.4-0.4-0.6-0.7c-10.5-11.5-12.6-23.4-6.5-35.4  c0.1-0.2,0.4-0.3,0.7-0.2c0.2,0.1,0.3,0.4,0.2,0.7c-9,17.4,2.5,30.1,6.3,34.3c0.2,0.3,0.5,0.5,0.6,0.7c0.2,0.2,0.2,0.5-0.1,0.7  C31,55.6,30.8,55.6,30.7,55.6z"></path>
<path style="fill:#5E9C76;" d="M40,42.4c0,0-0.1,0-0.1,0c-0.3-0.1-0.4-0.3-0.4-0.6c0.4-2,0-3.9-0.4-6c-0.2-1.1-0.5-2.3-0.6-3.5  c-0.1-1.3,0.2-2.5,0.5-3.7c0.2-1,0.5-1.9,0.5-2.9c0-1.5,0-3,0-4.7c-0.1-3.4-0.1-6.9,0.2-10c0-0.3,0.3-0.5,0.6-0.4  c0.3,0,0.5,0.3,0.4,0.6c-0.4,3-0.3,6.5-0.2,9.8c0,1.6,0.1,3.2,0.1,4.7c0,1.1-0.3,2.1-0.5,3.1c-0.3,1.1-0.5,2.2-0.4,3.4  c0.1,1.1,0.3,2.3,0.5,3.4c0.4,2.1,0.8,4.3,0.4,6.4C40.4,42.2,40.2,42.4,40,42.4z"></path>
<g>
	<path style="fill:#BAE0BD;" d="M34.6,77.4c0.1-16.2,5-22.2,8.9-26.9c2.7-3.3,5.1-6.1,5.1-11.4c0-4.6-1.1-10.1-1.8-14.1   c-0.5-2.4-0.9-4.5-0.9-5.4c0-11.2,3.8-14.1,6-14.1c4.6,0,7.3,4,9.5,7.2c0.4,0.6,0.8,1.2,1.2,1.7c0.5,0.7,1.8,1,3.6,1.3   c3.5,0.7,8.4,1.6,8.4,7.2c0,3.4-1.2,5.7-3.4,8.8c-1.2,1.6-0.7,3.4-0.3,5.3c0.9,3.4,1.8,7.2-6.2,11.9c-1.9,1.1-2.8,3.3-3.7,5.6   c-1.1,2.6-2.3,5.6-5.3,7.7c-0.5,0.4-1.1,0.7-1.7,1c-3.7,2.1-8.2,4.7-8.4,14.4L34.6,77.4L34.6,77.4z"></path>
	<path style="fill:#5E9C76;" d="M51.9,5.9c4.3,0,6.8,3.7,9,7c0.4,0.6,0.8,1.2,1.2,1.7c0.7,0.9,2,1.1,3.9,1.5c4.4,0.8,8,1.9,8,6.7   c0,3.3-1.2,5.5-3.3,8.5c-1.3,1.8-0.8,3.8-0.3,5.7c0.9,3.3,1.7,6.8-6,11.3c-2.1,1.2-3,3.4-3.9,5.8c-1.1,2.7-2.2,5.5-5.1,7.4   c-0.5,0.3-1.1,0.7-1.7,1c-3.7,2.1-8.3,4.8-8.6,14.3h-9.9c0.2-15.7,5-21.4,8.8-26.1c2.8-3.4,5.2-6.3,5.2-11.7   c0-4.6-1.1-10.2-1.8-14.2c-0.5-2.4-0.8-4.4-0.8-5.3C46.4,8.7,49.9,5.9,51.9,5.9 M51.9,4.9c-2.5,0-6.5,3-6.5,14.6   c0,2.7,2.7,12.3,2.7,19.5c0,12.6-14,10.8-14,38.8H46c0-11.4,6-13,9.9-15.5c5.9-3.9,5.1-10.9,9-13.2c12.9-7.5,3.6-13.1,6.7-17.3   c2.1-2.9,3.5-5.4,3.5-9.1c0-8.7-10.6-6.9-12-8.8C60.5,10.6,57.6,4.9,51.9,4.9L51.9,4.9z"></path>
</g>
<path style="fill:#5E9C76;" d="M49.3,55.6c-0.1,0-0.2,0-0.3-0.1c-0.2-0.2-0.2-0.5-0.1-0.7c0.2-0.2,0.4-0.4,0.6-0.7  c3.8-4.2,15.3-16.9,6.3-34.3c-0.1-0.2,0-0.5,0.2-0.7c0.2-0.1,0.5,0,0.7,0.2c6.2,11.9,4,23.9-6.5,35.4c-0.2,0.3-0.4,0.5-0.6,0.7  C49.6,55.6,49.4,55.6,49.3,55.6z"></path>
</svg>