<svg version="1.1" id="Layer_1" xmlns="http://www.w3.org/2000/svg" xmlns:xlink="http://www.w3.org/1999/xlink" x="0px" y="0px" viewBox="0 0 80 80" style="enable-background:new 0 0 80 80;" xml:space="preserve">
<g>
	<path style="fill:#F78F8F;" d="M40,77.501c-20.678,0-37.5-15.638-37.5-34.859c0-26.564,20.393-32.141,37.5-32.141
		s37.5,5.576,37.5,32.141C77.5,61.863,60.678,77.501,40,77.501z"></path>
	<path style="fill:#C74343;" d="M40,11.001c11.229,0,20.069,2.331,26.275,6.93C73.391,23.204,77,31.518,77,42.641
		c0,18.946-16.598,34.36-37,34.36S3,61.587,3,42.641c0-11.123,3.609-19.437,10.725-24.711C19.931,13.333,28.771,11.001,40,11.001
		 M40,10.001c-20.987,0-38,8.123-38,32.64c0,19.529,17.013,35.36,38,35.36s38-15.831,38-35.36C78,18.124,60.987,10.001,40,10.001
		L40,10.001z"></path>
</g>
<g>
	<path style="fill:#BAE0BD;" d="M43.203,33.71c-6.067-2.261-6.962-7.782-6.629-12.055l0.077-0.981l-0.838,0.517
		c-3.753,2.316-7.376,2.803-9.754,2.803c-1.582,0-2.799-0.211-3.431-0.35c0.563-1.765,2.82-7.8,7.567-8.89l1.513-0.348l-1.432-0.601
		c-3.971-1.668-5.666-4.381-5.772-9.304c6.185,0.031,9.566,0.688,13.145,5.642l0.564,0.782l0.313-0.913
		c1.673-4.872,3.859-7.049,4.379-7.517c0.01,0,0.019,0,0.028,0c0.559,0,2.443,0.127,4.254,1.688
		c-1.943,3.032-2.695,5.837-2.728,5.96l-0.379,1.441l1.171-0.921c0.104-0.081,0.226-0.183,0.367-0.301
		c1.347-1.121,4.446-3.702,9.87-3.856c-0.184,4.674-2.876,7.095-4.504,8.137l-1.081,0.691l1.265,0.222
		c3.967,0.696,6.488,3.607,7.251,6.15c-0.771,0.421-1.904,0.635-3.375,0.635c-0.001,0-0.001,0-0.001,0
		c-2.891,0-6.353-0.806-8.644-1.339l-1.207-0.28l0.505,0.965C47.39,24.921,46.384,29.716,43.203,33.71z"></path>
	<path style="fill:#5E9C76;" d="M43.1,3c0.608,0.026,2.008,0.212,3.43,1.294c-1.81,2.951-2.52,5.603-2.552,5.723l-0.758,2.882
		l2.343-1.841c0.106-0.083,0.232-0.188,0.378-0.31c1.26-1.049,4.102-3.415,9.016-3.715c-0.352,4.092-2.76,6.243-4.24,7.19
		l-2.162,1.384l2.528,0.444c3.547,0.622,5.87,3.103,6.722,5.394c-0.677,0.265-1.601,0.398-2.759,0.398
		c-2.833,0-6.262-0.798-8.531-1.326l-0.146-0.034l-2.122-0.493l1.009,1.931c1.56,2.984,0.662,7.411-2.219,11.189
		c-4.409-1.789-6.415-5.626-5.964-11.415l0.153-1.962l-1.675,1.034c-3.653,2.254-7.178,2.727-9.492,2.727
		c-1.161,0-2.118-0.117-2.776-0.231c0.753-2.14,2.909-7.076,7.025-8.021l3.025-0.695l-2.861-1.202
		c-3.088-1.297-5.207-3.247-5.448-8.337c5.684,0.067,8.877,0.801,12.221,5.429L38.374,12l0.626-1.825
		C40.515,5.765,42.448,3.63,43.1,3 M42.936,1.996c-0.143,0-0.222,0.007-0.222,0.007s-2.675,2.068-4.659,7.847
		C34.318,4.679,30.723,4.001,24,4.001c0,5.871,2.089,8.587,6.084,10.265C24.172,15.624,22,24.001,22,24.001s1.592,0.491,4.059,0.491
		c2.633,0,6.263-0.56,10.017-2.876c-0.479,6.152,1.758,10.786,7.292,12.683c3.494-4.215,4.613-9.328,2.775-12.843
		c2.246,0.522,5.891,1.386,8.904,1.386c1.596,0,3.015-0.242,3.954-0.906c-0.634-2.637-3.19-6.072-7.744-6.871
		C53.253,13.787,56,10.991,56,6.001c-6.502,0-9.937,3.391-11.056,4.27c0,0,0.799-3.036,2.895-6.169
		C45.822,2.162,43.628,1.996,42.936,1.996L42.936,1.996z"></path>
</g>
</svg>