<svg xmlns="http://www.w3.org/2000/svg" xmlns:xlink="http://www.w3.org/1999/xlink" version="1.1" id="Layer_1" x="0px" y="0px" viewBox="0 0 80 80" style="enable-background:new 0 0 80 80;" xml:space="preserve">
<title>Eggplant</title>
<path style="fill:#DCD5F2;" d="M18.5,77.5c-8.8,0-16-7.2-16-16c0-12.8,7.2-15.4,16.3-18.7c4.8-1.7,10.1-3.6,15.1-7.3  c3.1-2.5,6-5.4,8.5-8.4c5.2-5.7,10.5-11.5,16-12.1l13,11.3C69.4,46.6,45.1,77.5,18.5,77.5z"></path>
<path style="fill:#8B75A1;" d="M58.2,15.5l12.6,11c-1.1,10.2-7.6,22.7-17.2,32.8C43,70.5,30.2,77,18.5,77C10,77,3,70,3,61.5  C3,49,9.7,46.6,19,43.3c4.8-1.7,10.2-3.7,15.2-7.4c3.1-2.6,6-5.4,8.6-8.5C47.8,21.9,53,16.2,58.2,15.5 M58.6,14.5  c-8.9,0.6-17.2,14.7-25,20.6C19.4,45.7,2,41.4,2,61.5C2,70.6,9.4,78,18.5,78l0,0C44.9,78,70,47.2,71.9,26.1L58.6,14.5L58.6,14.5z"></path>
<path style="fill:#BAE0BD;" d="M72.1,33.4c-2-1.2-4.4-5.2-4.5-8.3v-1.3l-0.8,1c-2,2.5-7.1,3.3-8.5,3.5c-0.4-1.3-1.5-5.5,0.4-9.4  l0.4-0.8l-0.9,0.1c-0.8,0.1-1.7,0.2-2.5,0.2c-2.3,0-4.7-0.4-6.9-1.3c2.6-5.2,8.5-6.6,11.4-6.6c2.7,0.1,5.3,0.5,7.8,1.3l0.3,0.1  l0.2-0.2c2.8-2.7,5.2-5.7,7.1-9.1l1.8,1.1c-1.5,3.6-3.2,7.1-5.1,10.5l-0.2,0.3l0.2,0.3c0.7,1,3.2,5.5,3.2,8.6  C75.6,27.1,74.4,30.6,72.1,33.4z"></path>
<path style="fill:#5E9C76;" d="M75.7,3.4L76.7,4c-1.4,3.4-3.1,6.8-4.9,10l-0.3,0.6l0.4,0.5c0.7,1,3.2,5.3,3.2,8.3  c0.1,3.3-1,6.6-3,9.2c-2.2-2-3.6-4.7-3.9-7.6L68,22.4l-1.7,2c-1.8,2.1-6,3-7.8,3.3c-0.8-2.8-0.7-5.8,0.5-8.5l0.8-1.7L58,17.7  c-0.8,0.1-1.6,0.2-2.4,0.2c-2.1,0-4.2-0.4-6.2-1.1c2.6-4.5,8-5.8,10.6-5.8c2.6,0.1,5.2,0.5,7.7,1.3l0.6,0.2l0.4-0.4  C71.4,9.5,73.7,6.5,75.7,3.4 M75.3,2c-2,3.4-4.4,6.6-7.3,9.4c-2.6-0.8-5.3-1.3-8-1.4c-2.9,0-9.5,1.4-12.1,7.3c2.4,1,5,1.5,7.5,1.5  c0.8,0,1.7-0.1,2.5-0.2c-2.3,4.8-0.3,10.1-0.3,10.1s6.7-0.7,9.3-3.8c0.1,3.4,3,7.9,5.2,8.9c3.3-3.4,3.8-8,3.8-10.5  c0-3.4-2.7-8.1-3.3-8.9c2-3.6,3.8-7.2,5.3-11L75.3,2z"></path>
<path style="fill:#FFFFFF;" d="M16,52c-0.5,0-0.9-0.3-1-0.8c-0.1-0.5,0.2-1.1,0.8-1.2c21-4.8,33.3-21.4,33.4-21.6  c0.3-0.4,0.9-0.5,1.4-0.2c0.4,0.3,0.5,0.9,0.2,1.4C50.3,30.3,37.9,47,16.2,52C16.1,52,16.1,52,16,52z"></path>
</svg>