<svg xmlns="http://www.w3.org/2000/svg" viewBox="0 0 80 80">
    <title>Cucumber</title>
    <path d="M26.49,77.5A2,2,0,0,1,25,76.83l-.19-.21-.27,0A47.83,47.83,0,0,1,16,77.5a31.68,31.68,0,0,1-5-.37l-.18,0-.16.09a2.08,2.08,0,0,1-1.07.3,2,2,0,0,1-1.76-1l-.09-.16-.17-.06C4.3,75.07,2.5,73.06,2.5,70.6c0-2.93,2.76-4.94,8.18-7.84l.26-.14v-.3a2,2,0,0,1,2-2,2.06,2.06,0,0,1,1.14.34l.25.16.26-.14c1.65-.87,3.85-2,6.26-3.42l.19-.11,0-.22a2,2,0,0,1,2-1.57,2.06,2.06,0,0,1,.53.08l.21.06.18-.11c2.48-1.54,4.78-3.1,7-4.79l.15-.11,0-.18a2,2,0,0,1,2-1.55h.18l.16-.11a92.83,92.83,0,0,0,7.69-6.92l.2-.2-.07-.27a1.83,1.83,0,0,1-.06-.44,2,2,0,0,1,2-2,2,2,0,0,1,.31,0l.26,0,.18-.2a103.59,103.59,0,0,0,7.65-9.48L52,29l-.19-.29a1.94,1.94,0,0,1-.32-1.06,2,2,0,0,1,2-2,1.94,1.94,0,0,1,.36,0l.33.06.18-.28c1.36-2.08,2.71-4.27,4-6.52l.13-.22-.1-.23a1.93,1.93,0,0,1-.17-.78,2,2,0,0,1,1.69-1.94l.25,0,.11-.22c.93-1.79,1.69-3.56,2.36-5.11,2-4.74,3.4-7.88,7.17-7.88,5.1,0,7.68,6,7.68,17.78a46.89,46.89,0,0,1-.59,7.33l0,.23L77,28a1.92,1.92,0,0,1,.48,1.25A2,2,0,0,1,76.43,31l-.2.11-.05.22a49,49,0,0,1-2.57,7.77l-.12.28.19.23a1.91,1.91,0,0,1,.45,1.22,2,2,0,0,1-2,2h-.29l-.14.26a56.08,56.08,0,0,1-4.3,6.81l-.14.19.05.23a1.89,1.89,0,0,1,.06.45,2,2,0,0,1-2,2h-.22l-.14.17a65.07,65.07,0,0,1-4.46,4.82l-.24.24.13.31a1.92,1.92,0,0,1,.15.75,2,2,0,0,1-2,2,2,2,0,0,1-.91-.22l-.29-.15-.25.21c-1.54,1.31-3.17,2.58-4.83,3.76l-.28.2.09.33a1.86,1.86,0,0,1,.07.49,2,2,0,0,1-2,2,2.05,2.05,0,0,1-1.19-.38L48.67,67l-.28.17c-2,1.22-4,2.37-6.13,3.42l-.22.11L42,71a2,2,0,0,1-2,1.59,2.06,2.06,0,0,1-.92-.23l-.21-.1-.21.09a68.34,68.34,0,0,1-9.87,3.42l-.27.07-.08.27A2,2,0,0,1,26.49,77.5Z"
        fill="#bae0bd"></path>
    <path d="M69.82,3C74.58,3,77,8.81,77,20.28a46.41,46.41,0,0,1-.58,7.25l-.07.45.3.35a1.43,1.43,0,0,1,.36.93,1.47,1.47,0,0,1-.81,1.29l-.4.21-.11.44a48.47,48.47,0,0,1-2.55,7.69l-.24.56.38.47a1.43,1.43,0,0,1,.34.91,1.51,1.51,0,0,1-1.5,1.47h-.59l-.28.52A55.61,55.61,0,0,1,67,49.58l-.28.37.11.45a1.41,1.41,0,0,1,0,.33,1.5,1.5,0,0,1-1.48,1.47h-.45l-.29.34a64.66,64.66,0,0,1-4.43,4.78l-.49.47.26.63a1.43,1.43,0,0,1,.11.55,1.51,1.51,0,0,1-1.53,1.48,1.55,1.55,0,0,1-.69-.17L57.3,60l-.5.43c-1.53,1.3-3.15,2.56-4.8,3.74l-.56.4.18.67a1.41,1.41,0,0,1,.05.36,1.51,1.51,0,0,1-1.53,1.48,1.56,1.56,0,0,1-.9-.29l-.54-.38-.56.35c-1.95,1.21-4,2.35-6.09,3.4l-.43.22-.1.48A1.52,1.52,0,0,1,40,72a1.56,1.56,0,0,1-.7-.17l-.42-.21-.43.19a67.77,67.77,0,0,1-9.8,3.39l-.55.14-.16.54a1.54,1.54,0,0,1-2.61.56L25,76.08l-.55.1A47.32,47.32,0,0,1,16,77a31.18,31.18,0,0,1-4.91-.36l-.36-.06-.31.19A1.56,1.56,0,0,1,9.6,77a1.54,1.54,0,0,1-1.33-.76l-.18-.31-.34-.12C4.69,74.68,3,72.84,3,70.6c0-2.68,2.67-4.59,7.92-7.4l.53-.28v-.67A1.51,1.51,0,0,1,13,60.83a1.56,1.56,0,0,1,.86.26l.49.33.52-.27c1.66-.87,3.87-2,6.28-3.43l.39-.22.09-.44a1.52,1.52,0,0,1,1.5-1.18,1.6,1.6,0,0,1,.41.06l.42.11.37-.23c2.49-1.54,4.8-3.12,7.07-4.82l.29-.22.08-.36a1.53,1.53,0,0,1,1.42-1.16h.45L33.9,49a93.35,93.35,0,0,0,7.73-7l.4-.4-.13-.54a1.35,1.35,0,0,1,0-.32,1.51,1.51,0,0,1,1.53-1.48l.23,0,.53.08.36-.4a104.28,104.28,0,0,0,7.69-9.53l.4-.56-.38-.57a1.44,1.44,0,0,1-.24-.79,1.51,1.51,0,0,1,1.53-1.48l.27,0,.66.12.37-.56c1.37-2.08,2.72-4.29,4-6.55l.25-.44-.2-.46a1.43,1.43,0,0,1-.12-.58A1.49,1.49,0,0,1,60,16.25l.49-.08.23-.44c.94-1.81,1.7-3.58,2.37-5.14C65.25,5.6,66.52,3,69.82,3m0-1c-5.48,0-6.3,6.16-10,13.26a2.49,2.49,0,0,0-2.1,2.44,2.43,2.43,0,0,0,.21,1q-2,3.43-4,6.5a2.46,2.46,0,0,0-.46,0A2.51,2.51,0,0,0,51,27.61a2.43,2.43,0,0,0,.41,1.34,102.75,102.75,0,0,1-7.62,9.44,2.49,2.49,0,0,0-2.92,2.44,2.34,2.34,0,0,0,.07.56,91.92,91.92,0,0,1-7.64,6.88h0a2.52,2.52,0,0,0-2.47,1.94C28.37,52,26,53.57,23.77,55a2.57,2.57,0,0,0-.66-.1,2.52,2.52,0,0,0-2.48,2c-2.22,1.28-4.32,2.4-6.24,3.41A2.56,2.56,0,0,0,13,59.83a2.51,2.51,0,0,0-2.53,2.48v0C5.24,65.1,2,67.26,2,70.6c0,2.5,1.71,4.79,5.41,6.13A2.53,2.53,0,0,0,9.6,78a2.57,2.57,0,0,0,1.33-.38A32,32,0,0,0,16,78a48.25,48.25,0,0,0,8.6-.84,2.54,2.54,0,0,0,4.31-1,68.71,68.71,0,0,0,9.94-3.44A2.56,2.56,0,0,0,40,73a2.52,2.52,0,0,0,2.48-2c2.09-1,4.15-2.19,6.17-3.44a2.55,2.55,0,0,0,1.48.47,2.51,2.51,0,0,0,2.53-2.48,2.39,2.39,0,0,0-.09-.62q2.5-1.78,4.86-3.79a2.54,2.54,0,0,0,1.13.27A2.51,2.51,0,0,0,61.11,59a2.42,2.42,0,0,0-.19-.94,65.37,65.37,0,0,0,4.5-4.85,2.5,2.5,0,0,0,2.45-2.47,2.4,2.4,0,0,0-.07-.57,56.39,56.39,0,0,0,4.34-6.87,2.5,2.5,0,0,0,2.49-2.47,2.42,2.42,0,0,0-.56-1.54,49.3,49.3,0,0,0,2.6-7.85A2.46,2.46,0,0,0,78,29.26a2.42,2.42,0,0,0-.6-1.58,47.75,47.75,0,0,0,.6-7.4C78,8.54,75.46,2,69.82,2Z"
        fill="#5e9c76"></path>
    <circle cx="66" cy="28" r="1.5" fill="#9bcc9f"></circle>
    <path d="M66,27a1,1,0,1,1-1,1,1,1,0,0,1,1-1m0-1a2,2,0,1,0,2,2,2,2,0,0,0-2-2Z" fill="#5e9c76"></path>
    <circle cx="52" cy="52" r="1.5" fill="#9bcc9f"></circle>
    <path d="M52,51a1,1,0,1,1-1,1,1,1,0,0,1,1-1m0-1a2,2,0,1,0,2,2,2,2,0,0,0-2-2Z" fill="#5e9c76"></path>
    <circle cx="20" cy="68" r="1.5" fill="#9bcc9f"></circle>
    <path d="M20,67a1,1,0,1,1-1,1,1,1,0,0,1,1-1m0-1a2,2,0,1,0,2,2,2,2,0,0,0-2-2Z" fill="#5e9c76"></path>
    <circle cx="57" cy="35" r="0.5" fill="#9bcc9f"></circle>
    <path d="M57,34a1,1,0,1,0,1,1,1,1,0,0,0-1-1Z" fill="#5e9c76"></path>
    <circle cx="63" cy="41" r="0.5" fill="#9bcc9f"></circle>
    <path d="M63,40a1,1,0,1,0,1,1,1,1,0,0,0-1-1Z" fill="#5e9c76"></path>
    <circle cx="45" cy="55" r="0.5" fill="#9bcc9f"></circle>
    <path d="M45,54a1,1,0,1,0,1,1,1,1,0,0,0-1-1Z" fill="#5e9c76"></path>
    <circle cx="31" cy="63" r="0.5" fill="#9bcc9f"></circle>
    <path d="M31,62a1,1,0,1,0,1,1,1,1,0,0,0-1-1Z" fill="#5e9c76"></path>
    <circle cx="41" cy="65" r="0.5" fill="#9bcc9f"></circle>
    <path d="M41,64a1,1,0,1,0,1,1,1,1,0,0,0-1-1Z" fill="#5e9c76"></path>
    <circle cx="73" cy="19" r="0.5" fill="#9bcc9f"></circle>
    <path d="M73,18a1,1,0,1,0,1,1,1,1,0,0,0-1-1Z" fill="#5e9c76"></path>
    <circle cx="67" cy="13" r="0.5" fill="#9bcc9f"></circle>
    <path d="M67,12a1,1,0,1,0,1,1,1,1,0,0,0-1-1Z" fill="#5e9c76"></path>
</svg>