<svg xmlns="http://www.w3.org/2000/svg" xmlns:xlink="http://www.w3.org/1999/xlink" version="1.1" id="Layer_1" x="0px" y="0px"
    viewBox="0 0 80 80" style="enable-background:new 0 0 80 80;" xml:space="preserve">
    <g>
        <path style="fill:#C1CFE0;" d="M40,77.5c-4.4,0-8.5-1.3-12.1-3.8l-0.2-0.2l-0.2,0.1c-2.1,0.8-4.2,1.2-6.4,1.2   c-10.2,0-18.5-8.3-18.5-18.5c0-14.6,25-26.2,31.7-28.5l0.3-0.1V2.8l3.4,1.7h3.9l3.7,3.7v19.5l0.3,0.1c6.7,2.3,31.7,13.9,31.7,28.5   c0,10.2-8.3,18.5-18.5,18.5c-2.2,0-4.3-0.4-6.4-1.2l-0.2-0.1l-0.2,0.2C48.5,76.2,44.4,77.5,40,77.5z"></path>
        <path style="fill:#66798F;" d="M35,3.6l2.6,1.3L37.8,5H38h3.6L45,8.4v18.9V28l0.7,0.2c2.2,0.8,10.2,4.1,17.6,9.1   C74.6,45.2,77,52,77,56.3c0,9.9-8.1,18-18,18c-2.1,0-4.2-0.4-6.2-1.1L52.3,73l-0.4,0.3C48.3,75.7,44.3,77,40,77s-8.3-1.3-11.8-3.7   L27.7,73l-0.5,0.2c-2,0.8-4.1,1.1-6.2,1.1c-9.9,0-18-8.1-18-18c0-14.3,24.7-25.7,31.3-28L35,28v-0.7V3.6 M34,2v25.3   C29.2,29,2,40.6,2,56.3c0,10.5,8.5,19,19,19c2.3,0,4.5-0.4,6.6-1.2C31.1,76.5,35.4,78,40,78s8.9-1.5,12.4-3.9   c2.1,0.8,4.3,1.2,6.6,1.2c10.5,0,19-8.5,19-19c0-15.6-27.2-27.3-32-29V8l-4-4h-4L34,2L34,2z"></path>
    </g>
    <path style="fill:#66798F;" d="M40,78c-11.3,0-20.5-9.2-20.5-20.5c0-2.7,0.5-5.4,1.6-7.9L22,50c-1,2.4-1.5,4.9-1.5,7.5  C20.5,68.3,29.2,77,40,77c10.8,0,19.5-8.7,19.5-19.5c0-4.4-1.5-8.6-4.2-12.1l0.8-0.6c2.9,3.6,4.4,8,4.4,12.7  C60.5,68.8,51.3,78,40,78z"></path>
</svg>