<svg version="1.1" id="Layer_1" xmlns="http://www.w3.org/2000/svg" xmlns:xlink="http://www.w3.org/1999/xlink" x="0px" y="0px" viewBox="0 0 80 80" style="enable-background:new 0 0 80 80;" xml:space="preserve">
<g>
	<path style="fill:#F5CE85;" d="M30.992,77.5c-10.796,0-19.712-4.444-24.461-12.194c-9.704-15.833-0.035-24.465,10.202-33.604
		c2.847-2.541,5.79-5.169,8.324-7.974c0.812-0.898,1.622-1.805,2.432-2.712C35.62,11.914,44.027,2.5,54.012,2.5
		c3.932,0,7.856,1.397,11.999,4.271c6.557,4.548,10.471,11.56,11.318,20.276c1.203,12.37-4.054,26.582-13.392,36.206
		C55.279,72.174,42.964,77.5,30.992,77.5z"></path>
	<g>
		<path style="fill:#967A44;" d="M54.013,2v1c3.825,0,7.657,1.368,11.713,4.182c6.432,4.462,10.273,11.348,11.106,19.914
			c1.189,12.23-4.013,26.286-13.254,35.808C55.013,71.73,42.831,77,30.992,77c-10.618,0-19.378-4.357-24.035-11.955
			c-9.486-15.477-0.405-23.583,10.109-32.969c2.857-2.55,5.811-5.187,8.362-8.011c0.812-0.899,1.623-1.807,2.433-2.714
			C35.919,12.329,44.251,3.001,54.012,3L54.013,2 M54.012,2C42.816,2.001,33.878,13.221,24.686,23.394
			C13.124,36.191-6.578,44.875,6.105,65.568C11.273,74,20.679,78,30.992,78c11.526,0,24.183-5,33.304-14.399
			c15.553-16.027,20.017-44.742,2.001-57.24C61.875,3.293,57.814,2,54.012,2L54.012,2z"></path>
	</g>
</g>
<circle style="fill:#967A44;" cx="57" cy="23" r="1"></circle>
<circle style="fill:#967A44;" cx="59" cy="37" r="1"></circle>
<circle style="fill:#967A44;" cx="35" cy="55" r="1"></circle>
<circle style="fill:#967A44;" cx="35" cy="69" r="1"></circle>
<circle style="fill:#967A44;" cx="23" cy="63" r="1"></circle>
<circle style="fill:#967A44;" cx="48" cy="30" r="2"></circle>
</svg>